<svg xmlns="http://www.w3.org/2000/svg" xmlns:xlink="http://www.w3.org/1999/xlink" width="775" height="452" viewBox="0 0 775 452">
  <defs>
    <linearGradient id="linear-gradient" y1="0.5" x2="1" y2="0.5" gradientUnits="objectBoundingBox">
      <stop offset="0" stop-color="#fff" stop-opacity="0"/>
      <stop offset="1" stop-color="#fff" stop-opacity="0.502"/>
    </linearGradient>
    <clipPath id="clip-slide-1">
      <rect width="775" height="452"/>
    </clipPath>
  </defs>
  <g id="slide-1" clip-path="url(#clip-slide-1)">
    <g id="Group_2492" data-name="Group 2492" transform="translate(-308.508 -210.361)">
      <ellipse id="Ellipse_105" data-name="Ellipse 105" cx="387.5" cy="22.435" rx="387.5" ry="22.435" transform="translate(308.508 617.335)" fill="#eff1f5"/>
      <g id="Group_2491" data-name="Group 2491" transform="translate(358.664 210.361)">
        <path id="Path_5301" data-name="Path 5301" d="M581.716,241.25" transform="translate(-20.179 -171.952)" fill="none" stroke="#707070" stroke-linecap="round" stroke-linejoin="round" stroke-width="2"/>
        <g id="Group_2469" data-name="Group 2469" transform="translate(287.194 161.755)">
          <path id="Path_5302" data-name="Path 5302" d="M468.347,304.4h-9.232V282.591h9.232a8.109,8.109,0,0,1,8.1,8.1V296.3A8.108,8.108,0,0,1,468.347,304.4Zm-6.064-3.168h6.064a4.939,4.939,0,0,0,4.931-4.933v-5.606a4.937,4.937,0,0,0-4.931-4.931h-6.064Z" transform="translate(-459.115 -282.591)" fill="#003145"/>
        </g>
        <g id="Group_2470" data-name="Group 2470" transform="translate(266.427 99.481)" opacity="0.399">
          <path id="Path_5303" data-name="Path 5303" d="M460.665,234.328a9.551,9.551,0,0,0-5.168,3.641,11.387,11.387,0,0,0-2.147,5.182c-.541,3.71.423,7.7,1.712,11.969.309,1.081.664,2.184,1.011,3.32.322,1.143.681,2.307.969,3.522a31.337,31.337,0,0,1,1.023,7.7,18.028,18.028,0,0,1-1.806,7.91,11.346,11.346,0,0,1-5.648,5.579l-.516-.6a13.576,13.576,0,0,0,1.98-6.223,20.175,20.175,0,0,0-.5-6.121c-.9-4.053-2.8-8.12-4.268-12.9-.35-1.206-.679-2.444-.941-3.722a30.263,30.263,0,0,1-.512-3.953,19.225,19.225,0,0,1,1.227-8.275,13.78,13.78,0,0,1,5.523-6.607,11.235,11.235,0,0,1,4-1.524,8.1,8.1,0,0,1,4.1.317Z" transform="translate(-445.822 -233.104)" fill="#dcdfe5"/>
        </g>
        <path id="Path_5304" data-name="Path 5304" d="M469.522,279.721H445.1v27.985a9.155,9.155,0,0,0,9.133,9.133h14.728a9.134,9.134,0,0,0,9.133-9.133V279.721Z" transform="translate(-189.298 -124.405)" fill="#003145"/>
        <path id="Path_5305" data-name="Path 5305" d="M467.771,279.721v25.748a9.132,9.132,0,0,1-9.131,9.133H446.51a9.088,9.088,0,0,0,5.974,2.237h14.729a9.134,9.134,0,0,0,9.133-9.133V279.721Z" transform="translate(-187.551 -124.405)" fill="#fff" opacity="0.077"/>
        <g id="Group_2472" data-name="Group 2472" transform="translate(338.048 105.626)">
          <rect id="Rectangle_467" data-name="Rectangle 467" width="8.888" height="139.287" transform="translate(108.141 170.501)" fill="#c0c5d0"/>
          <path id="Path_5306" data-name="Path 5306" d="M595.251,432.518l-97.526-1.324-8.189-140.018a31.141,31.141,0,0,1,31.279-32.829l58.109-.581c25.491,0,39.108,23.491,35.44,48.715Z" transform="translate(-472.438 -257.766)" fill="#c0c5d0"/>
          <path id="Rectangle_468" data-name="Rectangle 468" d="M14.241,0h94.473a14.241,14.241,0,0,1,14.241,14.241V37.775a0,0,0,0,1,0,0H0a0,0,0,0,1,0,0V14.241A14.241,14.241,0,0,1,14.241,0Z" transform="translate(0 137.171)" fill="#949eb2"/>
          <rect id="Rectangle_469" data-name="Rectangle 469" width="8.888" height="139.287" transform="translate(5.926 170.501)" fill="#c0c5d0"/>
        </g>
        <g id="Group_2473" data-name="Group 2473" transform="translate(395.515 33.208)">
          <path id="Path_5307" data-name="Path 5307" d="M540.345,225.21a22.651,22.651,0,0,1,21.773,13.3c6.878,16.01-6.436,34.8-1.422,51.49,2.082,6.93,7.074,12.521,11.356,18.352s8.106,12.716,7.242,19.9c-.929,7.724-7.5,14.089-15.056,15.965s-15.72-.26-22.219-4.536-11.489-10.515-15.525-17.167c-13.986-23.043-20.378-60.6-4.8-84.436C526.16,231.252,531.7,225.8,540.345,225.21Z" transform="translate(-501.174 -225.163)" fill="#003145"/>
          <path id="Path_5308" data-name="Path 5308" d="M534.224,234.892c8.716-.556,17.526,4.471,20.974,11.967,6.627,14.4-6.2,31.31-1.371,46.321,2.006,6.232,6.814,11.262,10.939,16.508s7.81,11.44,6.977,17.9c-.9,6.948-7.231,12.673-14.5,14.361s-15.146-.233-21.4-4.081-11.067-9.461-14.955-15.442c-13.472-20.73-19.63-54.514-4.622-75.958C520.559,240.328,525.894,235.424,534.224,234.892Z" transform="translate(-507.52 -213.117)" fill="#03384e"/>
        </g>
        <g id="Group_2476" data-name="Group 2476" transform="translate(323.742 109.203)">
          <path id="Rectangle_470" data-name="Rectangle 470" d="M14.389,0H61.161A14.389,14.389,0,0,1,75.551,14.389v96.275a.44.44,0,0,1-.44.44H.44a.44.44,0,0,1-.44-.44V14.389A14.389,14.389,0,0,1,14.389,0Z" transform="translate(48.392)" fill="#f7ea48"/>
          <path id="Path_5309" data-name="Path 5309" d="M567.641,272.356s27.406,31.851,21.479,51.849c0,0,0,10.369-42.59-.37l-35.923-5.927-1.481-10a275.58,275.58,0,0,1,61.106,4.444c-2.587-2.881-5.209-6.219-7.915-9.907-4.213-5.739-8.936-13.053-10.973-19.35Z" transform="translate(-433.699 -242.728)" fill="#fec4ad"/>
          <path id="Path_5310" data-name="Path 5310" d="M520.748,260.44s26.395-3.1,48.121,49.738l-23.7,9.382s-15.307-20.741-17.528-38.763S520.748,260.44,520.748,260.44Z" transform="translate(-419.248 -257.588)" fill="#e8da25"/>
          <path id="Path_5311" data-name="Path 5311" d="M509.057,272.153s-30.588,30.576-33.551,50.081c0,0,.428,5.808,44.241,2.7h37.731l2.952-7.522a275.609,275.609,0,0,0-60.94-6.338c3.053-2.383,6.219-5.209,9.53-8.366,5.153-4.913,11.085-11.285,14.195-17.127Z" transform="translate(-475.506 -242.981)" fill="#fec4ad"/>
          <path id="Path_5312" data-name="Path 5312" d="M539.74,260.128s-27.3-1.371-57.954,46.837l21.69,13.394s18.706-17.735,24.055-35.088S539.74,260.128,539.74,260.128Z" transform="translate(-467.697 -257.938)" fill="#e8da25"/>
        </g>
        <g id="Group_2477" data-name="Group 2477" transform="translate(400.634)">
          <path id="Path_5313" data-name="Path 5313" d="M647.612,388.245c-5.683,5.5-37.715,13.645-39.734,16.784a3.954,3.954,0,0,0-.33,3.767c1.6,3.338,7.381,1.7,10.192,1.571,3.439-.153,39.932-1.912,39.956-1.772l.368,2.03,12.191-.563-.826-22.367S660.08,388.061,647.612,388.245Z" transform="translate(-389.107 9.422)" fill="#003145"/>
          <path id="Path_5314" data-name="Path 5314" d="M626.338,384.958c-4.983,6.143-35.808,18.067-37.437,21.425a3.953,3.953,0,0,0,.123,3.778c1.988,3.125,7.529.8,10.307.339,3.4-.563,39.416-6.681,39.456-6.544l.608,1.97,12.036-2.019-3.5-22.107S638.695,383.284,626.338,384.958Z" transform="translate(-412.401 2.093)" fill="#003145"/>
          <path id="Path_5315" data-name="Path 5315" d="M598.332,262.65s-4.1,61.507-4.11,61.66c-.426,6.385-10.416,5.512-14.771,6.23-6.834,1.128-15.536,3.659-20.772,8.422,1.887,1.012,5.607.628,7.832.749,2.842.153,5.687.263,8.532.359,5.838.2,11.677.316,17.513.568,0,0,15.745-.989,15.238-10.381s11.439-65.772,11.439-65.772Z" transform="translate(-449.461 -145.589)" fill="#fec4ad"/>
          <path id="Path_5316" data-name="Path 5316" d="M571.645,308.986l34.792,5.151,5.846-47.692c1.407-10.221,1.853-26.96-8.557-28.939-.188-.036-2.333-.668-2.524-.7-11.689-2-27.743,14.578-28.142,26.125Z" transform="translate(-433.337 -177.686)" fill="#2f6ac6"/>
          <path id="Path_5317" data-name="Path 5317" d="M633.559,284.531l-40.452,95.092A35.169,35.169,0,0,0,591.48,402.5l29.147,106.5,25.3-2.566c-1.523-16.683.709-69.678-8.541-86.614a28.691,28.691,0,0,1,.556-29.078l11.361-18.24,6.6-87.482Z" transform="translate(-410.155 -118.858)" fill="#03384e"/>
          <path id="Path_5318" data-name="Path 5318" d="M646.24,285.42l-6.1-16.31s32,28.914,27.429,55.6c-3.946,23.032-10.728,75.329-12.512,89.228a15.657,15.657,0,0,0,.619,6.775l7.457,23.422a50.63,50.63,0,0,1,2.365,17.066l-2.5,74.8H637.1L615.376,418.427a25.044,25.044,0,0,1-.411-4.09L612.971,302.72Z" transform="translate(-381.948 -138.034)" fill="#003145"/>
          <path id="Path_5319" data-name="Path 5319" d="M604.523,234.336c19.139,4.274,62.436,25.84,95.949,92.867,4.447,8.9-7.89,19.444-14.7,23.025a52.074,52.074,0,0,1-17.75,5.227,74.927,74.927,0,0,1-10.52.552c-1.458-.022-10.583.287-11.2-.929a137.351,137.351,0,0,0-9.984-17.208c-4.072-5.817-8.965-12.074-14.906-19.862a214.456,214.456,0,0,0-40.634-40.528,27.253,27.253,0,0,1-6.024-15.686c-.224-5.766,1.483-12.77,7.547-20.4C587.387,235,596.419,232.528,604.523,234.336Z" transform="translate(-429.497 -181.265)" fill="#4a88e9"/>
          <path id="Path_5320" data-name="Path 5320" d="M664.321,248.621l-35.429,35.837a20.388,20.388,0,0,1-7.4,4.781l-56.574,21.012a16.874,16.874,0,0,1-11.5.09l-6.935-2.454a16.842,16.842,0,0,0-8.314-.747L510,312.39l.368,3.116,23.422.334,3.637,6.416a12.087,12.087,0,0,0,13.481,5.638l80.514-20.422a27.384,27.384,0,0,0,10.74-5.454l39.434-32.638Z" transform="translate(-509.996 -162.968)" fill="#fec4ad"/>
          <path id="Path_5321" data-name="Path 5321" d="M560.06,246.017a3.275,3.275,0,0,0-.383-2.912c-2.421-3.581-7.633-14.253,6.861-24.921,0,0,26.083-16.364,37.643,9.463,3.3,7.381,2.371,13.9-.366,18.951-1.209,2.234,13.263,12.577,15,13.194,2.026.716,5.927,9.533-18.006,20.678-1-1.613-1.384-1.734-3.015-4-5.158-7.139-11.565-10.567-17.21-8.355-2.632,1.032-7.339,4.438-10.192,2.979-1.53-.781-4.716-7.807-5.584-8.539l-.449-.377a3.759,3.759,0,0,1-1.348-2.82l-.029-1.768-3.619-1.548a2.788,2.788,0,0,1-1.575-3.468Z" transform="translate(-451.86 -206.99)" fill="#fec4ad"/>
          <path id="Path_5322" data-name="Path 5322" d="M593.969,248.215q1.484-.222,2.968-.446a8.048,8.048,0,0,1-1.142-4.283c.175-1.483,1.552-2.941,3.06-2.654,1.97.375,2.3,2.9,2.685,4.815,1.189,5.873,7.7,10.192,13.755,9.124.415-7.119.826-14.325-.572-21.324s-4.823-13.88-10.737-18.091c-5.488-3.908-12.573-5.149-19.372-4.978a53.613,53.613,0,0,0-20.84,4.792,22.808,22.808,0,0,0-8.074,5.571c-2.122,2.49-3.331,5.889-2.524,9.028,1.052,4.092,5.277,6.818,9.553,7.513s8.633-.227,12.864-1.144c3.359-.729,9.676-2.943,12.328-.179C589.04,237.123,592.885,248.379,593.969,248.215Z" transform="translate(-456.616 -210.361)" fill="#003145"/>
          <path id="Path_5323" data-name="Path 5323" d="M568.823,276.273,592.187,300l30.258-28.7a18.3,18.3,0,0,0,1.164-25.647c-.121-.137-.245-.269-.37-.4-7.684-8.178-21.2-7.451-28.528,1.034Z" transform="translate(-436.846 -174.26)" fill="#2f6ac6"/>
        </g>
        <path id="Path_5325" data-name="Path 5325" d="M827.593,305.929H389.745l3.517-9.705H824.076Z" transform="translate(-258.304 -103.929)" fill="#949eb2"/>
        <g id="Group_2480" data-name="Group 2480" transform="translate(379.545 44.129)">
          <g id="Group_2478" data-name="Group 2478" transform="translate(0 1.901)">
            <path id="Path_5326" data-name="Path 5326" d="M503.147,253.725s1.514,33.886,11.96,35.292c12.837,1.727,21.733-4.745,23.884-16.162.864-4.583-.189-17.838-1.38-26.2-.752-5.288-6.856-10.36-12.124-11.244a22.163,22.163,0,0,0-10.737.911C500.924,240.888,503.147,253.725,503.147,253.725Z" transform="translate(-497.092 -225.606)" fill="#fec4ad"/>
            <path id="Path_5327" data-name="Path 5327" d="M510.043,263.7s-.37,8.518,0,12.222c0,0,3.827,7.282,12.222,5.555s7.036-7.222,7.036-7.222l-1.234-24.133Z" transform="translate(-488.558 -206.944)" fill="#fec4ad"/>
            <path id="Path_5328" data-name="Path 5328" d="M557.276,254.145c-1.8-11.579-11.888-21.237-23.478-22.971a30.418,30.418,0,0,0-24.239,7.554c-7.428,6.587-10.535,15.161-8.642,25.078,7,1.988,34.559,1.936,39.784,1.647.227,5.6,2.08,10.351,2.235,15.985C553.9,277.284,559.075,265.723,557.276,254.145Z" transform="translate(-500.375 -230.878)" fill="#003145"/>
            <path id="Path_5329" data-name="Path 5329" d="M524.843,253.358c-.657,2.892-2.685,4.9-4.53,4.478s-2.809-3.1-2.151-6,2.688-4.9,4.532-4.476S525.5,250.467,524.843,253.358Z" transform="translate(-478.515 -210.448)" fill="#fec4ad"/>
            <path id="Path_5330" data-name="Path 5330" d="M541.8,248.5l-1.256-1.539-7.177,5.869a7.166,7.166,0,0,0-6.777-4.02,7.443,7.443,0,0,0-6.374,3.224,6.861,6.861,0,0,0-5.4-.076,3.049,3.049,0,0,0-.285.175,7.428,7.428,0,0,0-6.477-3.323c-3.955,0-7.17,2.62-7.17,5.847s3.215,5.844,7.17,5.844,7.17-2.62,7.17-5.844a.965.965,0,0,1,.538-.954,5,5,0,0,1,3.749.206,4.6,4.6,0,0,0-.092.747c0,3.224,3.215,5.844,7.17,5.844,3.758,0,6.816-2.376,7.112-5.378Zm-28.559,6.156c0,2.127-2.327,3.861-5.187,3.861s-5.185-1.734-5.185-3.861,2.327-3.863,5.185-3.863c2.394,0,4.523,1.268,5.059,3.013l.251-.076A3.355,3.355,0,0,0,513.238,254.655Zm13.349,3.861c-2.86,0-5.187-1.734-5.187-3.861s2.327-3.863,5.187-3.863,5.185,1.734,5.185,3.863S529.445,258.516,526.587,258.516Z" transform="translate(-499.746 -210.881)" fill="#414460"/>
            <path id="Path_5331" data-name="Path 5331" d="M509.683,265.129l.6,5.79s6.679,9.434,13.959-7.778.884-4.413.884-4.413S518.509,266.672,509.683,265.129Z" transform="translate(-488.801 -201.937)" fill="#f8b296"/>
          </g>
          <g id="Group_2479" data-name="Group 2479" transform="translate(35.906)">
            <path id="Path_5332" data-name="Path 5332" d="M533.289,244.836a9.755,9.755,0,0,0,1.164-4.545,10.548,10.548,0,0,0-10.811-10.259,11.049,11.049,0,0,0-7.262,2.706A29.083,29.083,0,0,1,533.289,244.836Z" transform="translate(-516.38 -230.031)" fill="#f7ea48"/>
          </g>
        </g>
        <rect id="Rectangle_472" data-name="Rectangle 472" width="10.591" height="218.992" transform="translate(498.228 201.276)" fill="#c0c5d0"/>
        <g id="Group_2483" data-name="Group 2483" transform="translate(24.534 201.829)">
          <path id="Path_5333" data-name="Path 5333" d="M397.211,370.647l-6.288,22.506-13.57-3.972,6.95-22.837Z" transform="translate(-297.589 -218.953)" fill="#fec4ad"/>
          <path id="Path_5334" data-name="Path 5334" d="M357.008,334.216,425,346.928a2.925,2.925,0,0,1,1.481,4.608c-5.535,7.036-16.941,28.153-23.294,86.807l18.533,4.633,42.364-104.587,3.311-25.154Z" transform="translate(-322.888 -284.994)" fill="#003145"/>
          <g id="Group_2481" data-name="Group 2481" transform="translate(9.394)">
            <path id="Path_5335" data-name="Path 5335" d="M436.374,348.2a89.661,89.661,0,0,1,27.77,26.422,9.636,9.636,0,0,1,.794,12.765,9.4,9.4,0,0,1-13.728.884,102.892,102.892,0,0,1-25.477-24.048,6.021,6.021,0,0,1-1.689-5.909l2.4-9.122Z" transform="translate(-249.171 -241.517)" fill="#003145"/>
            <path id="Path_5336" data-name="Path 5336" d="M433.712,345.1l7.051,10.3a6.055,6.055,0,0,1,.864,4.938h0a6.052,6.052,0,0,1-7.771,4.222l-1.436-.478a6.059,6.059,0,0,1-3.475-2.986l-6.154-12.03Z" transform="translate(-250.482 -245.369)" fill="#fec4ad"/>
            <path id="Path_5337" data-name="Path 5337" d="M355.347,300.647s-18.091,30.007-3.971,52.071,109-14.12,109-14.12,45.9,66.636,56.926,71.049c0,0,13.681,0,16.328-7.062,0,0-37.069-88.7-66.194-93.111l-71.049,2.205Z" transform="translate(-345.987 -300.647)" fill="#03384e"/>
          </g>
          <g id="Group_2482" data-name="Group 2482" transform="translate(0 54.279)">
            <path id="Path_5338" data-name="Path 5338" d="M356.8,481.271h-15l17.652-150.923h15Z" transform="translate(-341.8 -317.993)" fill="#c0c5d0"/>
            <path id="Path_5339" data-name="Path 5339" d="M396.038,481.271h15L393.39,330.348h-15Z" transform="translate(-296.305 -317.993)" fill="#c0c5d0"/>
            <rect id="Rectangle_473" data-name="Rectangle 473" width="14.563" height="151.584" transform="translate(48.322 11.032)" fill="#c0c5d0"/>
            <path id="Path_5340" data-name="Path 5340" d="M446.1,345.584H352.543c-5.1,0-9.268-4.666-9.268-10.372h0c0-5.705,4.171-10.372,9.268-10.372H446.1c5.1,0,9.268,4.666,9.268,10.372h0C455.364,340.918,451.193,345.584,446.1,345.584Z" transform="translate(-339.965 -324.841)" fill="#c0c5d0"/>
          </g>
          <path id="Path_5341" data-name="Path 5341" d="M417.148,399.489l-14.405-17.082a42.09,42.09,0,0,0-1.487-4.391c-.451-1.12-1.137-2.374-2.333-2.544a2.484,2.484,0,0,0-2.45,1.638,6.044,6.044,0,0,0-.381,2.742c-7.709-.211-14.587-7.163-14.587-7.163-4.036,3.776-6.01,9.041-6.872,12.1a3.161,3.161,0,0,0,1.308,3.56l41,25.49,1.627-2.535A11.264,11.264,0,0,0,417.148,399.489Z" transform="translate(-301.128 -211.065)" fill="#003145"/>
        </g>
        <g id="Group_2486" data-name="Group 2486" transform="translate(0 36.772)">
          <path id="Path_5343" data-name="Path 5343" d="M497.778,332.726c-7.646-18.533-25.017-15.013-34.754-11.233a16.639,16.639,0,0,1-6.822,1.018c-3.533-.166-7.056-.242-10.574-.3-5.223-.054-10.432,0-15.633.117-5.2.141-10.387.328-15.57.6-2.4.152-4.8.283-7.2.422q-1.942-3.54-3.8-7.112c-2.219-4.384-4.258-8.842-6.194-13.34-1.873-4.523-3.691-9.068-5.295-13.7-1.651-4.613-3.109-9.292-4.586-13.99l-.043-.141a12.735,12.735,0,0,0-15.965-8.328,12.976,12.976,0,0,0-8.662,14.654,127.027,127.027,0,0,0,4.054,16.236,144.8,144.8,0,0,0,6.167,15.971,146.292,146.292,0,0,0,7.937,15.155,151.29,151.29,0,0,0,9.539,14.152l.606.819a11.391,11.391,0,0,0,11.047,4.417c5.1-.866,10.176-1.972,15.262-2.964,5.082-1.054,10.149-2.192,15.211-3.374q7.592-1.807,15.15-3.854c3.621-1.018,7.235-2.08,10.841-3.217Z" transform="translate(-291.541 -177.757)" fill="#f8b296"/>
          <path id="Path_5344" data-name="Path 5344" d="M408.965,274.437l8.391,19.83a23.13,23.13,0,0,1-5.2,25.618l-10.47,10.154-6.19,30.213a72.055,72.055,0,0,1-48.089-8.368s12.575-26.48,11.913-48.322,8.606-47.661,33.76-40.378Z" transform="translate(-310.294 -183.012)" fill="#4a88e9"/>
          <path id="Path_5345" data-name="Path 5345" d="M371.245,302.815s5.627,13.239,14.233,15.227l.855-17.311a7.459,7.459,0,0,1,9.582-6.782l2.279.68a8.972,8.972,0,0,0,10.722-4.859l2.266-4.942a7.286,7.286,0,0,1,5.992-4.222h0a2.98,2.98,0,0,0,2.65-3.614l-1.25-5.618,4.915-11a13.721,13.721,0,0,0,.292-10.482c-2.917-7.67-10.147-20.021-26.388-19.563-23.272.655-28.8,10.591-33.76,39.387Z" transform="translate(-290.117 -222.314)" fill="#fec4ad"/>
          <g id="Group_2484" data-name="Group 2484">
            <path id="Path_5346" data-name="Path 5346" d="M447.148,228.381a35.7,35.7,0,0,0-31.532,5.133c-12.5,9.189-18.8,26.442-33.392,31.714-10.248,3.7-24.813-2.367-31.021,9.851-1.985,3.913-2.445,8.393-2.912,12.756s-1.012,8.848-3.139,12.685c-2.836,5.115-8.052,8.42-10.9,13.508-3.114,5.573-3.825,13.712-3.168,19.924,2.23,21.028,24.337,38.763,44.67,26.538,9.1-5.47,2.342-19.108,4.792-27.752,1.577-5.555,3.112-10.706,6.214-15.574s7.738-9.178,13.438-10.08c5.681-.9,12.043,1.582,16.968-1.386,5.447-3.282,5.649-11.011,4.828-17.317s-1.669-13.676,2.876-18.123c2.818-2.757,7.027-3.542,10.971-3.538s7.895.657,11.812.218c5.876-.66,13.84-3.37,17.291-8.171a25.861,25.861,0,0,0,2.813-4.633c2.412-6.12-1.4-12.958-6.122-17.542C457.814,232.875,452.232,230.016,447.148,228.381Z" transform="translate(-330.864 -226.752)" fill="#003145"/>
          </g>
          <path id="Path_5342" data-name="Path 5342" d="M528.441,616.267h0a6.743,6.743,0,0,1,5.148,8.992l-17.6,47.31a20,20,0,0,1-19.292,13.01h0l24.252-65.028A6.743,6.743,0,0,1,528.441,616.267Z" transform="translate(-283.434 -529.681)" fill="#003145"/>
          <path id="Rectangle_474" data-name="Rectangle 474" d="M481.989,632.468h65.129A11.12,11.12,0,0,1,536,643.588H481.989Z" transform="translate(-321.673 -487.291)" fill="#003145"/>
          <path id="Path_5347" data-name="Path 5347" d="M492.318,333.318c-7.644-18.536-25.015-15.016-34.751-11.233a16.651,16.651,0,0,1-6.825,1.016c-3.533-.166-7.053-.242-10.573-.3-5.223-.054-10.43,0-15.63.117-5.2.141-10.39.33-15.57.6-2.4.153-4.8.283-7.2.422q-1.942-3.54-3.8-7.112c-2.219-4.382-4.26-8.842-6.194-13.34-1.876-4.523-3.691-9.068-5.295-13.7-1.651-4.613-3.112-9.293-4.588-13.99l-.043-.141a12.735,12.735,0,0,0-15.965-8.328,12.975,12.975,0,0,0-8.66,14.655,126.655,126.655,0,0,0,4.054,16.236,143.9,143.9,0,0,0,6.167,15.971,146.294,146.294,0,0,0,7.935,15.155,151.89,151.89,0,0,0,9.539,14.152l.608.819a11.4,11.4,0,0,0,11.045,4.42c5.1-.868,10.176-1.974,15.265-2.966,5.079-1.054,10.147-2.192,15.211-3.374q7.592-1.807,15.15-3.854c3.619-1.019,7.235-2.08,10.84-3.217Z" transform="translate(-298.328 -177.023)" fill="#fec4ad"/>
        </g>
        <g id="Group_2490" data-name="Group 2490" transform="translate(236.608 218.107)">
          <path id="Path_5348" data-name="Path 5348" d="M459.2,382.442l-8.888,14.32,11.6,7.9,9.382-14.32Z" transform="translate(-416.563 -215.215)" fill="#fec4ad"/>
          <path id="Path_5349" data-name="Path 5349" d="M471.66,393.7s-13-11.2-34.233-8.453a2.478,2.478,0,0,0-1.01,4.548l39.45,24.788s8.936-11.233,5.645-15.6C481.511,398.99,474.428,401,471.66,393.7Z" transform="translate(-435.266 -212.261)" fill="#003145"/>
          <path id="Path_5350" data-name="Path 5350" d="M533.062,319.568,451.458,465a134.55,134.55,0,0,0,16.584,13.315l49.615-74.542c9.158-6.066,18.861-12.106,18.861-12.106,19.09-12.494,58.27-53.33,58.27-53.33Z" transform="translate(-415.131 -293.398)" fill="#03384e"/>
          <path id="Path_5351" data-name="Path 5351" d="M488.619,384.841l4.238,21.091h13.835l-4.246-22.573Z" transform="translate(-368.922 -214.075)" fill="#fec4ad"/>
          <path id="Path_5352" data-name="Path 5352" d="M606.925,307.9l-114.285.384a25.2,25.2,0,0,0-24.328,31.465l41.5,142.511H531.62l-7.906-69.781a13.238,13.238,0,0,1,.231-4.2c6.791-32.434-13.8-51.488-13.8-51.488,11.722,5.023,30.724,7.3,48.726,8.247a46.235,46.235,0,0,0,48.52-44.762Z" transform="translate(-395.173 -307.903)" fill="#003145"/>
          <path id="Path_5353" data-name="Path 5353" d="M511.39,392.788S492.9,390.782,476,406.657a2.156,2.156,0,0,0,1.6,3.7l49.779-2.1s1.032-14.955-4.384-16.761C522.994,391.5,518.094,397.43,511.39,392.788Z" transform="translate(-385.443 -203.954)" fill="#003145"/>
        </g>
        <rect id="Rectangle_475" data-name="Rectangle 475" width="10.591" height="218.992" transform="translate(158.175 201.276)" fill="#c0c5d0"/>
        <g id="Group_2658" data-name="Group 2658" transform="translate(330.574 133.954)">
          <path id="Path_5615" data-name="Path 5615" d="M611.545,639.4H540.811v-5.188h70.734a2.6,2.6,0,0,1,2.6,2.6h0A2.6,2.6,0,0,1,611.545,639.4Z" transform="translate(-505.234 -580.738)" fill="#003145"/>
          <path id="Path_5616" data-name="Path 5616" d="M617.832,678.023H549.621a6.652,6.652,0,0,1-6.429-4.946l-12.038-45.359a6.654,6.654,0,0,1,6.429-8.359h59.564a6.652,6.652,0,0,1,6.429,4.946Z" transform="translate(-530.928 -619.359)" fill="#003145"/>
          <path id="Path_5617" data-name="Path 5617" d="M537.583,619.359a6.654,6.654,0,0,0-6.429,8.359l12.038,45.359a6.631,6.631,0,0,0,2.246,3.449L586.9,619.359Z" transform="translate(-530.928 -619.359)" opacity="0.5" fill="url(#linear-gradient)"/>
          <path id="Path_5618" data-name="Path 5618" d="M551.991,632.492a4.09,4.09,0,0,1-4.158,5.357,7.446,7.446,0,0,1-6.865-5.357,4.089,4.089,0,0,1,4.158-5.357A7.45,7.45,0,0,1,551.991,632.492Z" transform="translate(-505.255 -599.142)" fill="#fff"/>
        </g>
      </g>
    </g>
  </g>
</svg>
